<svg viewBox="0 0 250 43" xmlns="http://www.w3.org/2000/svg" data-logo="logo">
        <g transform="translate(0, 1) rotate(0)" id="logogram" style="opacity: 1;"><path fill="#2268B7" d="M0.452637 20.81C0.452637 9.76427 9.40694 0.809967 20.4526 0.809967H46.7026C57.7484 0.809967 66.7026 9.76427 66.7026 20.81V40.81H20.4526C9.40694 40.81 0.452637 31.8557 0.452637 20.81Z"></path><path fill="#F2F4FD" d="M46.7026 8.30997H20.4526C13.5491 8.30997 7.95264 13.9064 7.95264 20.81C7.95264 27.7135 13.5491 33.31 20.4526 33.31H46.7026C53.6062 33.31 59.2026 27.7135 59.2026 20.81C59.2026 13.9064 53.6062 8.30997 46.7026 8.30997Z"></path><path fill="black" d="M20.4526 27.06C23.9044 27.06 26.7026 24.2617 26.7026 20.81C26.7026 17.3582 23.9044 14.56 20.4526 14.56C17.0009 14.56 14.2026 17.3582 14.2026 20.81C14.2026 24.2617 17.0009 27.06 20.4526 27.06Z"></path><path fill="white" d="M17.9526 19.56C18.643 19.56 19.2026 19.0003 19.2026 18.31C19.2026 17.6196 18.643 17.06 17.9526 17.06C17.2623 17.06 16.7026 17.6196 16.7026 18.31C16.7026 19.0003 17.2623 19.56 17.9526 19.56Z"></path><path fill="black" d="M47.9526 27.06C51.4044 27.06 54.2026 24.2617 54.2026 20.81C54.2026 17.3582 51.4044 14.56 47.9526 14.56C44.5009 14.56 41.7026 17.3582 41.7026 20.81C41.7026 24.2617 44.5009 27.06 47.9526 27.06Z"></path><path fill="white" d="M45.4526 19.56C46.143 19.56 46.7026 19.0003 46.7026 18.31C46.7026 17.6196 46.143 17.06 45.4526 17.06C44.7623 17.06 44.2026 17.6196 44.2026 18.31C44.2026 19.0003 44.7623 19.56 45.4526 19.56Z"></path></g>
        <g transform="translate(73, 8.5)" id="logotype" style="opacity: 1;"><path d="M13.49 26L8.31 26L8.31 0.54L16.31 0.54L20.44 12.23Q20.70 13.05 21.03 14.34Q21.36 15.64 21.71 17.15Q22.05 18.65 22.35 20.07Q22.65 21.49 22.83 22.53L22.83 22.53L21.83 22.53Q22.01 21.51 22.31 20.10Q22.61 18.69 22.95 17.18Q23.29 15.68 23.63 14.36Q23.96 13.05 24.22 12.23L24.22 12.23L28.29 0.54L36.32 0.54L36.32 26L31.07 26L31.07 13.99Q31.07 13.17 31.10 11.92Q31.14 10.67 31.17 9.23Q31.21 7.78 31.24 6.32Q31.28 4.86 31.29 3.56L31.29 3.56L31.62 3.56Q31.29 4.98 30.90 6.49Q30.51 8.00 30.11 9.42Q29.70 10.84 29.34 12.03Q28.99 13.22 28.73 13.99L28.73 13.99L24.51 26L20.12 26L15.83 13.99Q15.57 13.22 15.21 12.05Q14.85 10.88 14.45 9.46Q14.05 8.04 13.64 6.53Q13.23 5.01 12.85 3.56L12.85 3.56L13.26 3.56Q13.28 4.79 13.31 6.24Q13.35 7.70 13.39 9.16Q13.43 10.62 13.46 11.88Q13.49 13.13 13.49 13.99L13.49 13.99L13.49 26ZM47.15 26.38L47.15 26.38Q44.23 26.38 42.11 25.18Q39.99 23.98 38.85 21.78Q37.72 19.57 37.72 16.55L37.72 16.55Q37.72 13.59 38.84 11.37Q39.97 9.15 42.04 7.90Q44.11 6.65 46.89 6.65L46.89 6.65Q48.77 6.65 50.40 7.25Q52.02 7.85 53.25 9.06Q54.48 10.26 55.17 12.07Q55.87 13.88 55.87 16.34L55.87 16.34L55.87 17.78L39.82 17.78L39.82 14.57L53.35 14.57L50.96 15.42Q50.96 13.93 50.51 12.83Q50.06 11.73 49.16 11.12Q48.26 10.52 46.93 10.52L46.93 10.52Q45.61 10.52 44.68 11.13Q43.75 11.75 43.27 12.80Q42.79 13.85 42.79 15.20L42.79 15.20L42.79 17.47Q42.79 19.13 43.35 20.26Q43.90 21.39 44.90 21.95Q45.90 22.51 47.24 22.51L47.24 22.51Q48.14 22.51 48.88 22.26Q49.61 22.00 50.13 21.50Q50.65 20.99 50.93 20.26L50.93 20.26L55.58 21.13Q55.11 22.70 53.97 23.89Q52.82 25.08 51.11 25.73Q49.39 26.38 47.15 26.38ZM62.22 14.94L62.22 14.94L62.22 26L57.09 26L57.09 6.89L61.93 6.89L62.02 11.66L61.71 11.66Q62.46 9.27 63.99 7.96Q65.52 6.65 67.95 6.65L67.95 6.65Q69.93 6.65 71.40 7.52Q72.87 8.38 73.69 10.00Q74.51 11.61 74.51 13.85L74.51 13.85L74.51 26L69.38 26L69.38 14.74Q69.38 12.96 68.47 11.95Q67.55 10.94 65.93 10.94L65.93 10.94Q64.85 10.94 64.01 11.41Q63.16 11.88 62.69 12.77Q62.22 13.66 62.22 14.94ZM74.76 6.89L86.09 6.89L86.09 10.81L74.76 10.81L74.76 6.89ZM77.40 20.86L77.40 2.35L82.52 2.35L82.52 20.41Q82.52 21.32 82.92 21.75Q83.33 22.19 84.27 22.19L84.27 22.19Q84.56 22.19 85.09 22.11Q85.62 22.04 85.89 21.97L85.89 21.97L86.62 25.81Q85.77 26.07 84.92 26.17Q84.08 26.27 83.31 26.27L83.31 26.27Q80.44 26.27 78.92 24.87Q77.40 23.47 77.40 20.86L77.40 20.86ZM95.70 26.38L95.70 26.38Q92.83 26.38 90.72 25.14Q88.62 23.90 87.48 21.68Q86.35 19.47 86.35 16.53L86.35 16.53Q86.35 13.56 87.48 11.35Q88.62 9.13 90.72 7.89Q92.83 6.65 95.70 6.65L95.70 6.65Q98.58 6.65 100.68 7.89Q102.77 9.13 103.91 11.35Q105.04 13.56 105.04 16.53L105.04 16.53Q105.04 19.47 103.91 21.68Q102.77 23.90 100.68 25.14Q98.58 26.38 95.70 26.38ZM95.70 22.34L95.70 22.34Q97.06 22.34 97.99 21.58Q98.91 20.82 99.37 19.50Q99.83 18.17 99.83 16.52L99.83 16.52Q99.83 14.82 99.37 13.51Q98.91 12.19 97.99 11.44Q97.06 10.69 95.70 10.69L95.70 10.69Q94.33 10.69 93.41 11.44Q92.50 12.19 92.04 13.51Q91.58 14.82 91.58 16.52L91.58 16.52Q91.58 18.17 92.04 19.50Q92.50 20.82 93.41 21.58Q94.33 22.34 95.70 22.34ZM111.47 26L106.34 26L106.34 6.89L111.30 6.89L111.30 10.23L111.50 10.23Q112.03 8.45 113.27 7.54Q114.51 6.64 116.12 6.64L116.12 6.64Q116.51 6.64 116.96 6.68Q117.42 6.72 117.77 6.81L117.77 6.81L117.77 11.39Q117.43 11.27 116.78 11.20Q116.13 11.13 115.55 11.13L115.55 11.13Q114.39 11.13 113.45 11.64Q112.51 12.14 111.99 13.04Q111.47 13.93 111.47 15.13L111.47 15.13L111.47 26ZM125.91 26.38L125.91 26.38Q123.60 26.38 121.82 25.72Q120.05 25.06 118.92 23.80Q117.79 22.55 117.46 20.77L117.46 20.77L122.23 19.95Q122.61 21.28 123.55 21.95Q124.49 22.62 126.06 22.62L126.06 22.62Q127.51 22.62 128.37 22.06Q129.22 21.51 129.22 20.65L129.22 20.65Q129.22 19.90 128.62 19.42Q128.01 18.94 126.76 18.69L126.76 18.69L123.46 18.00Q120.69 17.44 119.33 16.08Q117.96 14.72 117.96 12.58L117.96 12.58Q117.96 10.74 118.97 9.41Q119.98 8.09 121.77 7.37Q123.57 6.65 125.99 6.65L125.99 6.65Q128.25 6.65 129.91 7.28Q131.56 7.90 132.59 9.05Q133.61 10.19 133.96 11.75L133.96 11.75L129.41 12.55Q129.12 11.58 128.29 10.95Q127.46 10.33 126.06 10.33L126.06 10.33Q124.80 10.33 123.94 10.86Q123.09 11.39 123.09 12.26L123.09 12.26Q123.09 12.99 123.64 13.49Q124.20 13.99 125.55 14.26L125.55 14.26L128.98 14.94Q131.75 15.51 133.10 16.78Q134.45 18.05 134.45 20.10L134.45 20.10Q134.45 21.98 133.36 23.39Q132.26 24.80 130.34 25.59Q128.42 26.38 125.91 26.38ZM152.84 26L135.77 26L135.77 0.54L152.80 0.54L152.80 4.86L140.98 4.86L140.98 11.01L151.90 11.01L151.90 15.27L140.98 15.27L140.98 21.68L152.84 21.68L152.84 26ZM163.69 26L163.69 26L157.11 26L157.11 21.51L163.45 21.51Q165.91 21.51 167.58 20.63Q169.24 19.76 170.08 17.93Q170.92 16.10 170.92 13.25L170.92 13.25Q170.92 10.41 170.07 8.59Q169.23 6.77 167.58 5.90Q165.93 5.03 163.48 5.03L163.48 5.03L156.99 5.03L156.99 0.54L163.79 0.54Q167.62 0.54 170.38 2.07Q173.14 3.60 174.63 6.44Q176.11 9.29 176.11 13.25L176.11 13.25Q176.11 17.23 174.63 20.09Q173.14 22.94 170.35 24.47Q167.57 26 163.69 26ZM154.75 0.54L159.96 0.54L159.96 26L154.75 26L154.75 0.54Z" fill="#2268b7"></path></g>
        
      </svg>